<svg width="1284" height="249" viewBox="0 0 1284 249" fill="none" xmlns="http://www.w3.org/2000/svg">
<path d="M107 234.694C106.746 241.447 99.6382 247.69 91.134 248.837C83.3915 249.856 78.8221 246.161 75.6489 235.84C71.3333 238.389 67.2717 241.447 61.8138 240.937C55.9751 240.427 52.8019 236.86 50.7711 231.126C44.4247 235.458 38.0783 240.045 30.4626 235.713C22.9739 231.381 23.2278 223.353 22.4662 215.198C18.7853 218.384 15.6121 221.569 11.9312 224.118C8.50415 226.539 5.20403 229.597 0 227.558C6.85409 224.882 12.1851 220.423 17.3891 215.581C21.3238 211.886 23.3547 207.808 23.8624 202.457C24.624 193.792 26.4009 185.255 30.2088 177.355C32.4935 172.641 35.4128 166.27 41.5053 168.436C47.5979 170.602 44.8055 177.355 43.79 181.942C41.5053 191.753 35.5397 199.526 29.3203 207.044C24.624 212.65 24.7509 225.774 29.5741 231.253C32.7473 234.821 36.809 235.076 40.6169 233.547C45.4401 231.636 50.3903 229.469 51.2788 223.098C52.9288 209.974 56.3559 197.36 62.0676 185.383C63.8446 181.687 65.6216 178.12 69.0486 175.571C72.7295 172.768 75.6489 174.042 75.9027 178.629C76.2835 185.128 74.3796 191.244 71.968 197.105C67.9063 206.789 62.9561 215.836 56.4828 223.99C53.8173 227.303 53.5635 230.489 55.5943 233.929C57.879 237.879 61.6868 238.644 65.4947 237.497C71.3333 235.713 75.9027 233.037 76.9182 225.774C78.6951 213.16 82.7568 201.055 87.9609 189.332C88.8493 187.421 89.8648 185.51 91.0071 183.726C92.5303 181.433 94.1803 178.629 97.3535 179.776C100.527 180.923 100.4 184.236 100.146 186.912C98.8766 202.329 91.5148 215.071 82.7568 227.303C78.4413 233.292 77.9336 238.134 81.7414 242.466C85.0415 246.161 91.3879 246.671 96.9727 243.485C99.0036 242.339 100.527 240.555 102.431 239.153C104.208 238.134 104.081 234.948 107 234.694ZM54.9597 220.168C63.21 208.573 70.8256 196.978 72.6026 182.579C72.8565 180.923 73.8719 178.757 71.968 177.992C69.8102 176.973 68.7948 179.394 67.7794 180.795C60.4176 192.9 56.9905 206.279 54.9597 220.168ZM96.3381 183.216C86.5647 195.576 83.1376 210.357 80.2183 225.265C89.2301 212.778 97.3535 199.908 96.3381 183.216ZM26.4009 205.26C30.7165 201.437 33.0012 197.87 35.159 194.302C38.8399 188.568 41.7592 182.452 41.7592 175.316C41.7592 173.915 42.14 172.131 40.363 171.494C38.7129 170.857 37.4436 172.004 36.5552 173.15C35.032 175.189 33.382 177.228 32.3666 179.521C28.9395 187.166 27.5433 195.576 26.4009 205.26Z" fill="#B8C4A0"/>
<path d="M1223.51 60.9043C1221.93 60.3447 1222.3 59.5986 1222.86 58.666C1226.87 53.1637 1230.88 47.6613 1234.89 42.159C1235.26 41.5994 1235.82 40.76 1236.66 41.6927C1237.22 42.2522 1237.04 42.7185 1236.57 43.2781C1232.47 48.967 1228.46 54.5626 1224.35 60.2515C1224.17 60.6245 1223.79 60.811 1223.51 60.9043Z" fill="#A28CD0"/>
<path d="M1249.81 11.103C1249.81 8.02545 1249.81 4.94786 1249.81 1.77701C1249.81 1.03093 1250 0.00507083 1250.93 0.00507083C1252.33 -0.0881895 1252.14 1.12418 1252.14 2.05678C1251.96 7.93218 1251.68 13.8076 1251.49 19.683C1251.49 20.4291 1251.31 21.3617 1250.28 21.2684C1249.25 21.1751 1249.35 20.2425 1249.35 19.4965C1249.35 16.6987 1249.35 13.9008 1249.35 11.103C1249.44 11.103 1249.63 11.103 1249.81 11.103Z" fill="#A28CD0"/>
<path d="M1244.03 47.7536C1243.19 52.7897 1242.26 58.1988 1241.42 63.5146C1241.23 64.354 1241.33 65.6596 1240.02 65.3799C1238.62 65.1001 1239.18 63.8877 1239.37 63.1416C1240.21 57.7325 1241.05 52.4167 1241.98 47.1008C1242.17 46.1682 1241.51 44.4895 1243.29 44.7693C1244.78 45.0491 1243.84 46.5413 1244.03 47.7536Z" fill="#A28CD0"/>
<path d="M1266.97 35.3511C1265.95 35.1646 1264.64 35.9107 1264.36 34.5118C1264.08 32.7398 1265.76 33.2061 1266.6 33.1129C1271.45 32.3668 1276.3 31.7139 1281.24 31.1544C1282.17 31.0611 1283.57 30.0353 1283.95 31.6207C1284.32 33.2061 1282.64 33.2061 1281.8 33.2994C1276.86 34.0454 1271.82 34.6983 1266.97 35.3511Z" fill="#A28CD0"/>
<path d="M1263.9 28.8222C1263.34 28.8222 1262.78 28.7289 1262.59 27.9829C1262.4 27.2368 1263.06 26.8637 1263.62 26.6772C1269.02 24.7188 1273.97 21.9209 1278.26 18.004C1278.91 17.4444 1279.66 17.1646 1280.22 17.9107C1280.59 18.377 1280.4 19.0299 1279.84 19.4962C1275.18 23.6929 1269.86 26.7705 1263.9 28.8222Z" fill="#A28CD0"/>
<path d="M1253.17 62.9552C1252.7 63.9811 1254.48 66.0328 1252.24 66.2194C1250.65 66.3126 1251.21 64.2609 1251.12 63.235C1250.56 58.4787 1250.09 53.7225 1249.72 48.9662C1249.63 48.1269 1249.25 46.9145 1250.56 46.728C1251.96 46.5414 1251.77 47.8471 1251.87 48.6864C1252.24 53.4427 1252.7 58.199 1253.17 62.9552Z" fill="#A28CD0"/>
<path d="M1242.54 21.735C1242.54 22.3878 1242.26 23.1339 1241.61 23.0407C1241.14 23.0407 1240.49 22.3878 1240.39 21.9215C1238.62 16.9788 1236.94 12.036 1235.17 7.09317C1234.99 6.44034 1234.89 5.88077 1235.54 5.50773C1236.2 5.13469 1236.85 5.50773 1237.04 5.97403C1238.9 11.2899 1240.67 16.5124 1242.54 21.735Z" fill="#A28CD0"/>
<path d="M1262.59 59.1318C1262.78 60.4374 1262.78 61.2768 1261.75 61.37C1261 61.4633 1260.82 60.8105 1260.54 60.2509C1259.05 55.5879 1257.55 50.8316 1256.06 46.1686C1255.88 45.5158 1255.88 44.8629 1256.53 44.5832C1257.46 44.1169 1257.93 44.8629 1258.11 45.609C1259.7 50.1788 1261.28 54.9351 1262.59 59.1318Z" fill="#A28CD0"/>
<path d="M1276.49 50.4588C1276.11 51.7645 1275.37 52.0443 1274.43 51.2982C1270.61 48.2206 1266.79 45.143 1262.87 41.9722C1262.22 41.4126 1261.75 40.853 1262.5 40.0137C1263.06 39.4541 1263.62 39.7339 1264.08 40.1069C1267.91 43.1845 1271.82 46.2621 1275.65 49.3397C1276.02 49.7128 1276.21 50.0858 1276.49 50.4588Z" fill="#A28CD0"/>
<path d="M1225.94 12.3157C1227.06 12.2225 1227.34 13.0618 1227.8 13.7146C1230.14 16.9787 1232.37 20.3361 1234.71 23.6002C1235.17 24.3463 1236.2 25.0924 1235.17 25.9317C1234.15 26.7711 1233.49 25.7452 1233.03 24.9991C1230.51 21.4552 1228.08 17.9114 1225.57 14.3675C1224.91 13.4349 1224.91 12.6888 1225.94 12.3157Z" fill="#A28CD0"/>
<path d="M1219.32 44.6761C1218.94 44.303 1218.57 44.0232 1218.2 43.7435C1217.73 43.2772 1218.2 42.9041 1218.48 42.6243C1222.49 39.7333 1226.87 37.495 1231.35 35.7231C1231.63 35.6298 1232.19 36.0961 1232.37 36.3759C1232.47 36.6557 1232.37 37.4017 1232.09 37.495C1227.8 39.7333 1223.33 41.785 1219.32 44.6761Z" fill="#A28CD0"/>
<path d="M1258.58 22.5746C1258.02 22.2016 1257.55 22.0151 1257.37 21.642C1257.27 21.3622 1257.37 20.7094 1257.55 20.4297C1260.35 17.3521 1263.24 14.2745 1266.13 11.2902C1266.41 11.0104 1267.07 11.0104 1267.35 11.1036C1267.63 11.1969 1268 12.0362 1267.91 12.1295C1264.92 15.6734 1261.75 19.124 1258.58 22.5746Z" fill="#A28CD0"/>
<path d="M1231.25 30.6879C1230.97 31.6205 1230.32 31.9935 1229.48 31.6205C1226.87 30.4081 1224.26 29.1957 1221.65 27.9833C1221 27.7036 1220.81 27.0507 1221.18 26.4912C1221.37 26.2114 1222.02 25.8383 1222.3 25.9316C1225.19 27.2372 1228.08 28.5429 1230.97 29.9418C1231.16 30.0351 1231.16 30.5014 1231.25 30.6879Z" fill="#A28CD0"/>
</svg>
