<svg width="107" height="81" viewBox="0 0 107 81" fill="none" xmlns="http://www.w3.org/2000/svg">
<path d="M107 66.6936C106.746 73.4467 99.6382 79.6903 91.134 80.837C83.3915 81.8564 78.8221 78.1612 75.6489 67.8403C71.3333 70.3887 67.2717 73.4467 61.8138 72.9371C55.9751 72.4274 52.8019 68.8597 50.7711 63.1258C44.4247 67.4581 38.0783 72.0451 30.4626 67.7129C22.9739 63.3807 23.2278 55.3533 22.4662 47.1985C18.7853 50.384 15.6121 53.5694 11.9312 56.1178C8.50415 58.5388 5.20403 61.5968 0 59.5581C6.85409 56.8823 12.1851 52.4227 17.3891 47.5808C21.3238 43.8856 23.3547 39.8082 23.8624 34.4566C24.624 25.7922 26.4009 17.2551 30.2088 9.35514C32.4935 4.64064 35.4128 -1.73029 41.5053 0.435825C47.5979 2.60194 44.8055 9.35513 43.79 13.9422C41.5053 23.7534 35.5397 31.526 29.3203 39.0437C24.624 44.6501 24.7509 57.7742 29.5741 63.2533C32.7473 66.821 36.809 67.0758 40.6169 65.5468C45.4401 63.6355 50.3903 61.4694 51.2788 55.0985C52.9288 41.9743 56.3559 29.3599 62.0676 17.3825C63.8446 13.6874 65.6216 10.1196 69.0486 7.57127C72.7295 4.76806 75.6489 6.04225 75.9027 10.6293C76.2835 17.1277 74.3796 23.2438 71.968 29.105C67.9063 38.7889 62.9561 47.8356 56.4828 55.9904C53.8173 59.3033 53.5635 62.4887 55.5943 65.929C57.879 69.879 61.6868 70.6435 65.4947 69.4968C71.3333 67.7129 75.9027 65.0371 76.9182 57.7742C78.6951 45.1598 82.7568 33.055 87.9609 21.3325C88.8493 19.4212 89.8648 17.5099 91.0071 15.7261C92.5303 13.4325 94.1803 10.6293 97.3535 11.7761C100.527 12.9229 100.4 16.2357 100.146 18.9115C98.8766 34.3292 91.5148 47.0711 82.7568 59.3033C78.4413 65.292 77.9336 70.1339 81.7414 74.4661C85.0415 78.1612 91.3879 78.6709 96.9727 75.4854C99.0036 74.3387 100.527 72.5548 102.431 71.1532C104.208 70.1339 104.081 66.9484 107 66.6936ZM54.9597 52.1678C63.21 40.5727 70.8256 28.9776 72.6026 14.5793C72.8565 12.9229 73.8719 10.7567 71.968 9.99223C69.8102 8.97288 68.7948 11.3938 67.7794 12.7954C60.4176 24.9002 56.9905 38.2792 54.9597 52.1678ZM96.3381 15.2164C86.5647 27.576 83.1376 42.3566 80.2183 57.2646C89.2301 44.7775 97.3535 31.9082 96.3381 15.2164ZM26.4009 37.2598C30.7165 33.4373 33.0012 29.8695 35.159 26.3018C38.8399 20.568 41.7592 14.4519 41.7592 7.31644C41.7592 5.91483 42.14 4.13097 40.363 3.49387C38.7129 2.85678 37.4436 4.00355 36.5552 5.15032C35.032 7.18902 33.382 9.22772 32.3666 11.5213C28.9395 19.1664 27.5433 27.576 26.4009 37.2598Z" fill="#B8C4A0"/>
</svg>
