<svg width="195" height="415" viewBox="0 0 195 415" fill="none" xmlns="http://www.w3.org/2000/svg">
<path d="M68.9409 23.8479C67.5233 21.3919 63.7902 20.2826 66.4544 18.231C68.6281 16.6036 70.4699 19.5501 71.6037 21.4445C74.297 26.0757 74.8104 30.9274 72.0165 35.5121C69.3629 40.0258 65.2237 42.6465 59.735 42.2483C54.8093 41.9179 51.4912 39.1888 49.8531 34.5531C48.0731 29.6365 49.3907 25.2693 53.5267 21.945C55.4196 20.4595 58.7149 17.9127 60.2729 20.2978C62.3261 23.3138 57.823 23.1223 56.2803 24.2546C52.4251 27.4369 51.527 31.2395 54.4285 35.2366C57.8253 39.8648 62.5381 39.774 66.7436 36.2384C71.0895 32.6319 70.8582 27.99 68.9409 23.8479Z" fill="#E76A64"/>
<path d="M98.9963 27.8678C94.3606 29.5059 92.1944 32.8919 94.0439 37.5971C95.6079 41.389 99.2733 43.0615 103.064 41.1457C107.627 39.0155 109.509 35.0678 106.885 30.2253C106.105 28.6811 103.988 27.2833 106.515 26.0061C107.919 25.2966 109.334 27.0491 110.184 28.382C112.875 32.6615 112.19 36.8852 109.393 40.7664C106.246 45.0009 101.962 46.6375 96.9592 44.7598C92.0274 43.0226 89.5485 39.1642 90.0178 33.8158C90.4176 28.6788 93.6418 25.9916 98.2082 24.5649C99.7539 24.1361 102.145 23.9851 102.572 25.1791C103.216 27.4977 101.036 27.7182 98.9963 27.8678Z" fill="#E76A64"/>
<path d="M73.6217 81.2305C68.3535 83.012 68.1223 78.3701 67.1259 75.7013C65.5587 71.2059 67.1586 67.0485 71.0849 64.0066C75.5726 60.6808 80.3549 60.3786 84.7312 63.8066C89.3899 67.4445 90.7473 72.2222 88.379 77.6491C86.0802 82.8648 81.3055 84.9255 75.8907 85.3711C74.3435 85.4482 74.4763 83.6185 74.049 82.4245C77.1421 81.9186 80.2351 81.4128 82.759 79.4321C86.2641 76.6031 87.233 72.9409 84.7541 69.0826C82.3462 65.3646 78.8938 64.1133 74.6823 66.242C70.6111 68.2997 69.2889 71.6118 70.7851 75.9668C71.6365 77.6514 72.6993 79.4055 73.6217 81.2305Z" fill="#E76A64"/>
<path d="M186.081 361.982C187.426 374.942 186.342 387.535 184.548 400.403C184.182 402.833 183.106 405.537 186.508 406.098C189.909 406.658 190 403.519 190.377 401.33C195.222 366.609 193.345 332.451 178.056 300.142C175.111 294.013 170.94 287.46 163.003 287.84C154.116 288.507 151.84 296.334 150.009 303.416C147.355 313.431 145.927 323.87 143.766 334.103C141.616 344.577 138.539 355.819 125.529 355.96C113.011 356.319 109.136 345.892 106.969 335.867C104.457 323.687 102.666 311.472 100.864 299.017C99.762 291.111 98.179 283.228 93.275 276.469C85.2544 265.035 71.6132 262.071 62.4542 272.157C49.3911 286.289 25.6124 278.023 13.8674 259.291C13.3402 258.352 13.0305 256.919 13.2365 256.186C14.8278 254.18 21.3099 253.629 16.5558 249.997C13.7949 247.718 8.04588 248.476 3.73985 249.164C-0.325673 249.842 0.110834 253.921 0.512754 257.278C0.662639 260.406 1.06457 263.763 1.69546 266.869C2.00514 268.301 3.80396 270.626 4.94884 269.366C13.3633 258.833 15.1654 271.288 17.9377 273.808C34.5259 287.966 48.7964 288.971 66.2463 275.835C75.0857 269.14 84.8558 271.808 89.9442 282.417C94.5055 292.087 95.2418 302.422 96.4706 312.975C97.6763 323.047 98.8706 332.878 102.218 342.365C106.104 353.032 111.604 362.174 124.855 362.022C135.941 361.973 143.795 354.844 147.708 340.909C149.79 334.056 150.647 326.78 151.996 319.721C153.162 313.876 154.569 308.021 156.216 302.154C157.257 298.727 158.516 294.808 162.834 294.36C167.151 293.912 169.008 297.441 170.841 300.488C179.504 315.267 182.476 332.007 184.714 348.542C186.136 353.056 185.874 357.651 186.081 361.982Z" fill="#853D61"/>
</svg>
