<svg width="448" height="137" viewBox="0 0 448 137" fill="none" xmlns="http://www.w3.org/2000/svg">
<path d="M236.295 0C288.012 1.49061 342.403 2.38495 395.308 17.5891C409.278 21.4647 422.653 26.5328 433.947 35.7745C451.186 49.4881 452.672 68.5679 437.811 84.9645C426.219 97.7838 411.061 105.237 395.011 110.901C336.458 132.366 276.123 139.521 214.301 136.241C180.715 134.453 147.426 131.173 113.84 134.155C88.2789 136.241 63.9067 130.279 40.4263 119.547C30.618 115.075 21.4041 109.112 13.6764 101.063C-5.94024 80.7908 -4.45413 58.1336 18.1347 41.4388C37.1568 27.129 59.4484 20.5704 82.0372 15.2042C131.97 3.27935 182.795 1.19248 236.295 0ZM181.904 125.211C244.617 132.962 306.439 130.279 367.369 113.286C388.472 107.324 409.278 100.765 426.219 86.4551C447.025 69.4622 445.539 50.0844 422.653 36.0727C410.169 28.6197 396.497 24.1478 382.528 21.1666C297.225 3.57747 211.626 3.87561 125.729 14.0117C92.7372 17.8873 60.0429 24.1478 30.618 40.5445C0.301443 57.5374 -0.887477 83.1758 27.0513 103.746C49.3429 120.441 89.765 130.279 119.784 126.403C105.518 122.23 92.4401 118.354 79.3623 114.18C75.7957 112.988 68.6623 113.286 70.7428 107.025C72.5262 101.659 77.8762 106.727 80.8484 107.622C121.271 120.739 161.693 131.471 203.006 110.007C203.303 109.709 203.898 109.709 204.492 109.411C206.573 108.516 208.951 108.516 209.842 110.305C211.328 112.988 209.545 114.777 206.87 115.671C198.548 119.248 190.226 122.23 181.904 125.211Z" fill="#FFCD00"/>
</svg>
