<svg width="130" height="394" viewBox="0 0 130 394" fill="none" xmlns="http://www.w3.org/2000/svg">
<path d="M93.5937 75.4164C78.1142 57.2105 58.3349 43.5105 41.3494 26.7892C64.753 38.818 83.1712 57.2633 101.745 75.0543C104.83 73.7153 102.546 68.7929 106.783 68.4198C110.666 70.4973 108.588 74.3805 108.567 77.3711C109.032 89.9256 108.492 90.2578 97.4549 85.3234C95.8144 84.4717 93.7999 84.2221 92.2113 83.1523C89.2522 81.0646 82.1492 82.8287 83.2301 77.3253C84.5912 72.58 90.0418 78.7179 93.5937 75.4164Z" fill="#B8C4A0"/>
<path d="M77.5171 86.7949C84.5649 104.605 82.0615 109.308 68.8324 107.769C65.6757 107.478 60.847 108.401 61.3359 103.448C61.783 99.6372 66.6732 104.259 68.5948 101.03C53.6851 90.1033 38.7754 79.1767 23.9697 67.814C21.6128 66.1002 16.5353 64.1991 19.755 60.3575C22.3308 57.2843 24.7184 61.7706 26.8573 63.4324C40.3964 73.3412 54.0394 82.8137 67.2046 93.3247C73.6211 98.3101 76.1032 96.5972 77.5171 86.7949Z" fill="#B8C4A0"/>
<path d="M116.277 46.9474C117.69 41.984 118.636 38.9833 120.319 33.8538C124.43 41.7464 124.449 48.4337 121.738 54.0095C119.183 58.9311 113.763 55.5658 109.516 55.0147C107.72 54.8171 104.708 52.9474 105.892 51.8469C115.374 43.967 103.568 43.2278 101.585 40.9118C93.9852 32.1879 85.1497 24.7825 76.958 16.6088C75.4734 15.1029 72.9504 13.1191 75.2663 11.1361C77.3643 9.1012 79.0772 11.5833 80.78 13.1412C92.2109 24.1606 103.86 35.232 116.277 46.9474Z" fill="#B8C4A0"/>
<path d="M27.7617 359.878C34.4018 365.991 39.8467 370.908 45.2915 376.091C46.3539 377.154 49.2755 378.35 47.4163 380.078C45.2915 382.337 44.2291 379.015 42.9011 377.952C37.5891 373.035 32.4098 367.852 26.965 362.403C23.3793 371.706 20.5905 380.875 18.7313 390.311C18.4657 391.773 19.1297 394.564 16.3409 393.899C14.216 393.368 15.6768 391.241 15.8096 389.912C16.872 383.135 18.9969 376.623 20.9889 370.111C21.6529 367.852 23.2465 365.725 22.1841 362.668C16.208 365.858 10.4976 368.915 4.65435 371.971C3.32633 372.636 1.46705 375.028 0.271836 372.636C-0.923376 370.377 2.13109 369.978 3.4591 369.313C8.77116 366.257 14.216 363.333 19.7937 360.542C22.8481 359.08 23.3793 358.017 20.7233 355.625C15.6768 350.974 10.7632 346.189 5.84951 341.405C4.9199 340.475 2.66231 339.411 4.38873 337.817C5.98234 336.222 7.17757 338.348 7.97438 339.279C13.1536 344.993 18.3328 350.841 23.5121 356.555C24.3089 356.157 24.9729 355.758 25.7697 355.492C28.5585 347.119 31.3474 338.614 34.1362 330.242C34.6674 328.647 34.5346 325.324 36.9251 326.122C39.5811 327.052 37.3234 329.577 36.7922 331.172C34.5346 338.88 31.8786 346.588 28.957 355.625C36.5267 352.303 42.9011 349.379 49.2756 346.854C51.002 346.189 53.658 343.133 54.8533 346.322C55.7829 348.847 52.0644 348.847 50.2052 349.777C43.5651 352.834 36.7922 355.891 27.7617 359.878Z" fill="#E76A64"/>
</svg>
