<svg width="1189" height="575" viewBox="0 0 1189 575" fill="none" xmlns="http://www.w3.org/2000/svg">
<path d="M1062.94 183.848C1061.52 181.392 1057.79 180.283 1060.45 178.231C1062.63 176.604 1064.47 179.55 1065.6 181.445C1068.3 186.076 1068.81 190.927 1066.02 195.512C1063.36 200.026 1059.22 202.647 1053.73 202.248C1048.81 201.918 1045.49 199.189 1043.85 194.553C1042.07 189.637 1043.39 185.269 1047.53 181.945C1049.42 180.46 1052.71 177.913 1054.27 180.298C1056.33 183.314 1051.82 183.122 1050.28 184.255C1046.43 187.437 1045.53 191.239 1048.43 195.237C1051.83 199.865 1056.54 199.774 1060.74 196.238C1065.09 192.632 1064.86 187.99 1062.94 183.848Z" fill="#E76A64"/>
<path d="M1093 187.868C1088.36 189.506 1086.19 192.892 1088.04 197.597C1089.61 201.389 1093.27 203.061 1097.06 201.146C1101.63 199.015 1103.51 195.068 1100.89 190.225C1100.1 188.681 1097.99 187.283 1100.52 186.006C1101.92 185.297 1103.33 187.049 1104.18 188.382C1106.88 192.661 1106.19 196.885 1103.39 200.766C1100.25 205.001 1095.96 206.637 1090.96 204.76C1086.03 203.023 1083.55 199.164 1084.02 193.816C1084.42 188.679 1087.64 185.992 1092.21 184.565C1093.75 184.136 1096.15 183.985 1096.57 185.179C1097.22 187.498 1095.04 187.718 1093 187.868Z" fill="#E76A64"/>
<path d="M1067.62 241.23C1062.35 243.012 1062.12 238.37 1061.13 235.701C1059.56 231.206 1061.16 227.048 1065.08 224.007C1069.57 220.681 1074.35 220.379 1078.73 223.807C1083.39 227.444 1084.75 232.222 1082.38 237.649C1080.08 242.865 1075.31 244.926 1069.89 245.371C1068.34 245.448 1068.48 243.619 1068.05 242.424C1071.14 241.919 1074.24 241.413 1076.76 239.432C1080.26 236.603 1081.23 232.941 1078.75 229.083C1076.35 225.365 1072.89 224.113 1068.68 226.242C1064.61 228.3 1063.29 231.612 1064.79 235.967C1065.64 237.651 1066.7 239.405 1067.62 241.23Z" fill="#E76A64"/>
<path d="M93.5937 75.4164C78.1142 57.2105 58.3349 43.5105 41.3494 26.7892C64.7531 38.818 83.1712 57.2633 101.745 75.0543C104.83 73.7153 102.546 68.7929 106.783 68.4198C110.666 70.4973 108.589 74.3805 108.567 77.3711C109.032 89.9256 108.492 90.2578 97.4549 85.3234C95.8144 84.4717 93.7999 84.2221 92.2113 83.1523C89.2522 81.0646 82.1492 82.8287 83.2301 77.3253C84.5912 72.58 90.0418 78.7179 93.5937 75.4164Z" fill="#B8C4A0"/>
<path d="M77.5171 86.7949C84.5649 104.605 82.0615 109.308 68.8324 107.769C65.6757 107.478 60.847 108.401 61.3359 103.448C61.783 99.6372 66.6732 104.259 68.5948 101.03C53.6851 90.1033 38.7754 79.1767 23.9697 67.814C21.6128 66.1002 16.5353 64.1991 19.755 60.3575C22.3308 57.2843 24.7184 61.7706 26.8573 63.4324C40.3964 73.3412 54.0394 82.8137 67.2046 93.3247C73.6211 98.3101 76.1032 96.5972 77.5171 86.7949Z" fill="#B8C4A0"/>
<path d="M116.277 46.9474C117.69 41.984 118.636 38.9833 120.319 33.8538C124.43 41.7464 124.449 48.4337 121.738 54.0095C119.183 58.9311 113.763 55.5658 109.516 55.0147C107.72 54.8171 104.708 52.9474 105.892 51.8469C115.374 43.967 103.568 43.2278 101.585 40.9118C93.9852 32.1879 85.1497 24.7825 76.958 16.6088C75.4734 15.1029 72.9503 13.1191 75.2663 11.1361C77.3643 9.1012 79.0772 11.5833 80.7799 13.1412C92.2109 24.1606 103.86 35.232 116.277 46.9474Z" fill="#B8C4A0"/>
<path d="M27.7617 359.878C34.4018 365.991 39.8467 370.908 45.2915 376.091C46.354 377.154 49.2755 378.35 47.4163 380.078C45.2915 382.337 44.2291 379.015 42.9011 377.952C37.5891 373.035 32.4098 367.852 26.965 362.403C23.3793 371.706 20.5905 380.875 18.7313 390.311C18.4657 391.773 19.1297 394.564 16.3409 393.899C14.216 393.368 15.6768 391.241 15.8096 389.912C16.872 383.135 18.9969 376.623 20.9889 370.111C21.6529 367.852 23.2465 365.725 22.1841 362.668C16.208 365.858 10.4976 368.915 4.65435 371.971C3.32633 372.636 1.46705 375.028 0.271836 372.636C-0.923376 370.377 2.13109 369.978 3.4591 369.313C8.77116 366.257 14.216 363.333 19.7937 360.542C22.8481 359.08 23.3793 358.017 20.7233 355.625C15.6768 350.974 10.7632 346.189 5.84951 341.405C4.9199 340.475 2.66231 339.411 4.38873 337.817C5.98234 336.222 7.17757 338.348 7.97438 339.279C13.1536 344.993 18.3328 350.841 23.5121 356.555C24.3089 356.157 24.9729 355.758 25.7697 355.492C28.5585 347.119 31.3474 338.614 34.1362 330.242C34.6674 328.647 34.5346 325.324 36.9251 326.122C39.5811 327.052 37.3234 329.577 36.7922 331.172C34.5346 338.88 31.8786 346.588 28.957 355.625C36.5267 352.303 42.9011 349.379 49.2756 346.854C51.002 346.189 53.658 343.133 54.8533 346.322C55.7829 348.847 52.0644 348.847 50.2052 349.777C43.5651 352.834 36.7922 355.891 27.7617 359.878Z" fill="#E76A64"/>
<path d="M1180.08 521.982C1181.43 534.942 1180.34 547.535 1178.55 560.403C1178.18 562.833 1177.11 565.537 1180.51 566.098C1183.91 566.658 1184 563.519 1184.38 561.33C1189.22 526.609 1187.34 492.451 1172.06 460.142C1169.11 454.013 1164.94 447.46 1157 447.84C1148.12 448.507 1145.84 456.334 1144.01 463.416C1141.36 473.431 1139.93 483.87 1137.77 494.103C1135.62 504.577 1132.54 515.819 1119.53 515.96C1107.01 516.319 1103.14 505.892 1100.97 495.867C1098.46 483.687 1096.67 471.472 1094.86 459.017C1093.76 451.111 1092.18 443.228 1087.28 436.469C1079.25 425.035 1065.61 422.071 1056.45 432.157C1043.39 446.289 1019.61 438.023 1007.87 419.291C1007.34 418.352 1007.03 416.919 1007.24 416.186C1008.83 414.18 1015.31 413.629 1010.56 409.997C1007.79 407.718 1002.05 408.476 997.74 409.164C993.674 409.842 994.111 413.921 994.513 417.278C994.663 420.406 995.065 423.763 995.695 426.869C996.005 428.301 997.804 430.626 998.949 429.366C1007.36 418.833 1009.17 431.288 1011.94 433.808C1028.53 447.966 1042.8 448.971 1060.25 435.835C1069.09 429.14 1078.86 431.808 1083.94 442.417C1088.51 452.087 1089.24 462.422 1090.47 472.975C1091.68 483.047 1092.87 492.878 1096.22 502.365C1100.1 513.032 1105.6 522.174 1118.85 522.022C1129.94 521.973 1137.8 514.843 1141.71 500.909C1143.79 494.056 1144.65 486.78 1146 479.721C1147.16 473.876 1148.57 468.021 1150.22 462.154C1151.26 458.727 1152.52 454.808 1156.83 454.36C1161.15 453.912 1163.01 457.441 1164.84 460.488C1173.5 475.267 1176.48 492.007 1178.71 508.542C1180.14 513.056 1179.87 517.651 1180.08 521.982Z" fill="#853D61"/>
</svg>
