<svg width="66" height="67" viewBox="0 0 66 67" fill="none" xmlns="http://www.w3.org/2000/svg">
<path d="M5.51406 60.9043C3.92864 60.3447 4.30167 59.5986 4.86123 58.666C8.87142 53.1637 12.8816 47.6613 16.8918 42.159C17.2648 41.5994 17.8244 40.76 18.6637 41.6927C19.2233 42.2522 19.0368 42.7185 18.5705 43.2781C14.4671 48.967 10.4569 54.5626 6.3534 60.2515C6.16688 60.6245 5.79384 60.811 5.51406 60.9043Z" fill="#A28CD0"/>
<path d="M31.8132 11.103C31.8132 8.02545 31.8132 4.94786 31.8132 1.77701C31.8132 1.03093 31.9997 0.00507083 32.9323 0.00507083C34.3312 -0.0881895 34.1447 1.12418 34.1447 2.05678C33.9582 7.93218 33.6784 13.8076 33.4919 19.683C33.4919 20.4291 33.3054 21.3617 32.2795 21.2684C31.2536 21.1751 31.3469 20.2425 31.3469 19.4965C31.3469 16.6987 31.3469 13.9008 31.3469 11.103C31.4401 11.103 31.6267 11.103 31.8132 11.103Z" fill="#A28CD0"/>
<path d="M26.0314 47.7536C25.192 52.7897 24.2594 58.1988 23.42 63.5146C23.2335 64.354 23.3268 65.6596 22.0211 65.3799C20.6222 65.1001 21.1818 63.8877 21.3683 63.1416C22.2077 57.7325 23.047 52.4167 23.9796 47.1008C24.1661 46.1682 23.5133 44.4895 25.2853 44.7693C26.7774 45.0491 25.8448 46.5413 26.0314 47.7536Z" fill="#A28CD0"/>
<path d="M48.9733 35.3511C47.9475 35.1646 46.6418 35.9107 46.362 34.5118C46.0823 32.7398 47.7609 33.2061 48.6003 33.1129C53.4498 32.3668 58.2994 31.7139 63.2422 31.1544C64.1748 31.0611 65.5737 30.0353 65.9467 31.6207C66.3198 33.2061 64.6411 33.2061 63.8017 33.2994C58.8589 34.0454 53.8229 34.6983 48.9733 35.3511Z" fill="#A28CD0"/>
<path d="M45.8953 28.8222C45.3358 28.8222 44.7762 28.7289 44.5897 27.9829C44.4032 27.2368 45.056 26.8637 45.6156 26.6772C51.0247 24.7188 55.9674 21.9209 60.2574 18.004C60.9102 17.4444 61.6563 17.1646 62.2159 17.9107C62.5889 18.377 62.4024 19.0299 61.8428 19.4962C57.1798 23.6929 51.864 26.7705 45.8953 28.8222Z" fill="#A28CD0"/>
<path d="M35.1707 62.9552C34.7044 63.9811 36.4764 66.0328 34.2381 66.2194C32.6527 66.3126 33.2122 64.2609 33.119 63.235C32.5594 58.4787 32.0931 53.7225 31.7201 48.9662C31.6268 48.1269 31.2538 46.9145 32.5594 46.728C33.9583 46.5414 33.7718 47.8471 33.8651 48.6864C34.2381 53.4427 34.7044 58.199 35.1707 62.9552Z" fill="#A28CD0"/>
<path d="M24.5391 21.735C24.5391 22.3878 24.2593 23.1339 23.6065 23.0407C23.1402 23.0407 22.4874 22.3878 22.3941 21.9215C20.6222 16.9788 18.9435 12.036 17.1715 7.09317C16.985 6.44034 16.8918 5.88077 17.5446 5.50773C18.1974 5.13469 18.8502 5.50773 19.0368 5.97403C20.902 11.2899 22.6739 16.5124 24.5391 21.735Z" fill="#A28CD0"/>
<path d="M44.5899 59.1318C44.7764 60.4374 44.7764 61.2768 43.7506 61.37C43.0045 61.4633 42.8179 60.8105 42.5382 60.2509C41.046 55.5879 39.5538 50.8316 38.0617 46.1686C37.8752 45.5158 37.8752 44.8629 38.528 44.5832C39.4606 44.1169 39.9269 44.8629 40.1134 45.609C41.6988 50.1788 43.2842 54.9351 44.5899 59.1318Z" fill="#A28CD0"/>
<path d="M58.4856 50.4588C58.1125 51.7645 57.3664 52.0443 56.4338 51.2982C52.6102 48.2206 48.7865 45.143 44.8696 41.9722C44.2167 41.4126 43.7504 40.853 44.4965 40.0137C45.0561 39.4541 45.6157 39.7339 46.082 40.1069C49.9056 43.1845 53.8226 46.2621 57.6462 49.3397C58.0193 49.7128 58.2058 50.0858 58.4856 50.4588Z" fill="#A28CD0"/>
<path d="M7.93852 12.3157C9.05764 12.2225 9.33742 13.0618 9.80372 13.7146C12.1352 16.9787 14.3735 20.3361 16.705 23.6002C17.1713 24.3463 18.1972 25.0924 17.1713 25.9317C16.1454 26.7711 15.4926 25.7452 15.0263 24.9991C12.5083 21.4552 10.0835 17.9114 7.56548 14.3675C6.91266 13.4349 6.91265 12.6888 7.93852 12.3157Z" fill="#A28CD0"/>
<path d="M1.31729 44.6761C0.944251 44.303 0.571199 44.0232 0.198158 43.7435C-0.268144 43.2772 0.198146 42.9041 0.477927 42.6243C4.48812 39.7333 8.87137 37.495 13.3479 35.7231C13.6276 35.6298 14.1872 36.0961 14.3737 36.3759C14.467 36.6557 14.3737 37.4017 14.0939 37.495C9.80396 39.7333 5.32749 41.785 1.31729 44.6761Z" fill="#A28CD0"/>
<path d="M40.58 22.5746C40.0204 22.2016 39.5541 22.0151 39.3676 21.642C39.2743 21.3622 39.3676 20.7094 39.5541 20.4297C42.3519 17.3521 45.243 14.2745 48.1341 11.2902C48.4138 11.0104 49.0667 11.0104 49.3465 11.1036C49.6262 11.1969 49.9993 12.0362 49.906 12.1295C46.9217 15.6734 43.7508 19.124 40.58 22.5746Z" fill="#A28CD0"/>
<path d="M13.2545 30.6879C12.9747 31.6205 12.3219 31.9935 11.4826 31.6205C8.87128 30.4081 6.26 29.1957 3.64871 27.9833C2.99589 27.7036 2.80937 27.0507 3.18241 26.4912C3.36893 26.2114 4.02173 25.8383 4.30151 25.9316C7.19258 27.2372 10.0837 28.5429 12.9747 29.9418C13.1613 30.0351 13.1612 30.5014 13.2545 30.6879Z" fill="#A28CD0"/>
</svg>
