<svg width="82" height="58" viewBox="0 0 82 58" fill="none" xmlns="http://www.w3.org/2000/svg">
<path d="M76.6519 4.45838C74.1519 3.15838 70.152 3.45839 70.752 1.05839C71.352 -1.44161 74.352 1.25839 76.252 1.35839C80.052 1.45839 82.6519 2.85838 81.1519 7.45838C80.8519 8.45838 81.1519 9.75838 81.1519 10.9584C81.1519 11.9584 82.252 13.5584 80.252 13.5584C78.952 13.6584 79.052 12.1584 78.952 11.2584C78.852 9.95838 78.752 8.65838 78.552 6.75838C74.652 10.0584 74.452 14.2584 74.052 18.1584C73.352 24.5584 72.9519 31.0584 71.1519 37.3584C70.2519 40.2584 69.552 43.3584 65.952 43.8584C61.952 44.4584 59.852 41.5584 58.252 38.6584C55.452 33.4584 55.3519 27.4584 54.1519 21.7584C53.4519 18.3584 52.752 14.9584 51.852 11.5584C51.352 9.85839 50.652 7.75838 48.352 7.95838C46.052 8.05838 45.052 10.0584 44.252 11.8584C42.052 17.4584 41.8519 23.5584 41.1519 29.4584C40.5519 34.2584 39.852 39.0584 37.952 43.4584C36.952 45.8584 35.352 47.7584 32.452 47.8584C29.452 48.0584 27.952 46.2584 26.752 43.8584C23.852 38.3584 23.452 32.0584 21.252 26.2584C19.852 22.6584 19.352 17.8584 14.252 17.6584C8.85197 17.4584 6.95196 21.9584 5.55196 25.9584C2.25196 34.9584 1.05198 44.3584 3.25198 53.8584C3.55198 55.0584 4.55196 56.7584 2.55196 57.0584C0.951963 57.3584 1.25196 55.4584 1.05196 54.4584C-0.948037 43.0584 -0.348037 31.9584 5.05196 21.4584C6.95196 17.7584 9.65198 14.6584 14.252 14.9584C18.652 15.2584 20.652 18.5584 22.352 22.1584C24.652 27.0584 25.252 32.3584 26.952 37.3584C27.252 38.1584 27.252 38.9584 27.552 39.7584C28.452 42.2584 29.152 45.5584 32.352 45.3584C35.352 45.1584 36.152 41.9584 36.852 39.3584C38.852 32.4584 38.7519 25.2584 40.1519 18.2584C40.7519 15.3584 41.352 12.4584 42.752 9.65838C43.952 7.25838 45.552 5.25838 48.252 5.15838C51.152 5.05838 52.552 7.35838 53.552 9.75838C56.452 16.0584 56.652 22.9584 58.052 29.6584C58.752 32.8584 59.252 36.1584 61.352 38.9584C62.352 40.2584 63.452 41.7584 65.252 41.5584C67.152 41.3584 67.952 39.6584 68.452 38.0584C70.152 32.9584 70.4519 27.6584 71.1519 22.3584C71.8519 16.2584 71.7519 9.75838 76.6519 4.45838Z" fill="#A28CD0"/>
</svg>
