<svg width="97" height="132" viewBox="0 0 97 132" fill="none" xmlns="http://www.w3.org/2000/svg">
<path d="M30.6092 21.6898L30.9933 21.3351L30.6218 20.9672C30.2528 20.6018 29.879 20.2341 29.5029 19.8641C27.8011 18.19 26.0515 16.4689 24.4777 14.6954C24.1729 14.3321 23.8593 13.9743 23.5469 13.6178C22.5691 12.5021 21.6035 11.4004 20.9617 10.192C20.5465 9.41033 20.2856 8.61219 20.256 7.77386C20.2267 6.93938 20.4254 6.03361 20.9764 5.0316C21.982 3.20305 23.5379 2.24575 25.3167 1.79949C27.1106 1.34944 29.1194 1.424 30.9724 1.67105C55.7328 5.28116 75.894 17.6933 93.9103 34.5147L93.9158 34.5199L93.9215 34.5249C94.5889 35.1114 95.2395 35.835 95.4808 36.558C95.5967 36.9053 95.6123 37.2346 95.5063 37.5511C95.3995 37.8699 95.1517 38.2282 94.6476 38.5995C94.1468 38.9683 93.7727 39.0593 93.4891 39.0399C93.2014 39.0202 92.9192 38.881 92.6152 38.6169C92.3074 38.3495 92.015 37.9877 91.7039 37.5789C91.6515 37.5101 91.5984 37.4397 91.5446 37.3682C91.2909 37.0318 91.0218 36.6748 90.7432 36.374L90.7329 36.3628L90.7218 36.3522C77.4531 23.6685 62.2879 14.4303 44.9819 8.27741C44.9015 8.24541 44.8203 8.21298 44.7383 8.18025C43.3497 7.62601 41.7413 6.98402 40.2599 6.83597C38.995 6.67893 37.6965 6.31912 36.3571 5.93215C36.2521 5.90182 36.1469 5.87133 36.0414 5.84076C34.8124 5.48455 33.55 5.11868 32.3025 4.90807C30.9428 4.67852 29.566 4.6264 28.217 4.98018C26.86 5.33604 25.5643 6.09388 24.3573 7.43077L24.3516 7.43703L24.3462 7.44348C23.9472 7.91651 23.9582 8.53009 24.1266 9.09646C24.2966 9.66848 24.655 10.3027 25.1274 10.957C26.0769 12.272 27.5719 13.7834 29.2859 15.2201C31.0032 16.6596 32.9616 18.0418 34.852 19.092C36.7287 20.1347 38.5914 20.8804 40.1041 20.9883L40.1041 20.9885L40.1169 20.9891C55.49 21.6917 68.0381 28.3594 79.1821 38.491L79.182 38.4911L79.1883 38.4966C79.4221 38.7021 79.6628 38.9089 79.9061 39.118C81.1191 40.1602 82.397 41.2582 83.2104 42.5256C83.689 43.2714 83.9852 44.0476 84.0102 44.8746C84.0351 45.6971 83.7932 46.617 83.1171 47.6569C82.54 48.5182 81.8906 49.0081 81.2083 49.2658C80.5183 49.5263 79.7552 49.5639 78.9342 49.4538C78.1111 49.3433 77.2535 49.0877 76.3863 48.7834C75.9807 48.6411 75.5786 48.4902 75.1786 48.3401L75.0985 48.31C74.6751 48.1512 74.2537 47.9938 73.8451 47.8545C62.6509 43.9193 53.0221 37.516 43.3638 30.6399C42.8705 30.2863 42.3738 29.9029 41.8661 29.508C41.8043 29.46 41.7423 29.4117 41.6801 29.3633C41.2338 29.0158 40.7787 28.6616 40.3186 28.3202C39.272 27.5436 38.1694 26.8106 37.0031 26.331C35.83 25.8486 34.5786 25.6168 33.2448 25.8592C31.9125 26.1013 30.5473 26.8075 29.1295 28.1167C27.7459 29.3943 26.4926 30.806 25.7779 32.43C25.0542 34.0742 24.8935 35.9124 25.6548 37.9964C26.7516 40.9987 28.2866 43.2086 30.4622 44.5535C32.6374 45.8981 35.3799 46.333 38.8012 45.9332C47.4442 44.9906 55.2494 48.3912 61.4292 54.4364L61.4291 54.4365L61.4391 54.4457C62.8953 55.7949 64.13 57.3384 64.7157 58.9985C65.2926 60.6338 65.2497 62.4046 64.1129 64.282C63.0875 65.9601 61.7126 66.5503 60.1416 66.6079C58.5234 66.6673 56.7125 66.1596 54.8772 65.6004L54.8772 65.6002L54.8646 65.5967C46.8061 63.3704 40.3893 58.5243 34.095 53.2752C32.4739 51.9234 30.9665 51.1717 29.5368 50.8857C28.1021 50.5987 26.7831 50.7882 25.5559 51.2583C24.3368 51.7253 23.2082 52.4692 22.1417 53.2905C21.47 53.8078 20.8006 54.3742 20.1462 54.928C19.7738 55.2431 19.4063 55.5541 19.046 55.8496C16.6472 57.7213 14.7249 60.027 13.9207 62.6152C13.1081 65.2306 13.4557 68.079 15.4981 70.9521C15.7112 71.2602 15.9262 71.5769 16.1445 71.8984C17.4317 73.7943 18.8305 75.8546 20.6047 77.276C21.6563 78.1185 22.8558 78.7528 24.2626 79.0081C25.6681 79.2631 27.2464 79.1338 29.0475 78.5017C33.8897 76.9593 38.2809 76.4115 42.6165 79.4362C43.9353 80.3775 44.8702 81.4251 45.356 82.5835C45.8373 83.7311 45.8968 85.032 45.3876 86.5296L45.385 86.5373L45.3826 86.5452C45.1266 87.3879 44.7627 87.9663 44.3357 88.373C43.9085 88.7799 43.3917 89.0399 42.7916 89.2052C41.8009 89.4782 40.6601 89.4809 39.4045 89.4838C39.0894 89.4846 38.7671 89.4853 38.4382 89.4904C37.1496 89.4985 35.8701 89.0407 34.5336 88.4021C33.9899 88.1423 33.4486 87.8587 32.8968 87.5696C32.771 87.5037 32.6447 87.4375 32.5177 87.3712C31.8387 87.0171 31.1443 86.6635 30.4394 86.362C29.0312 85.7597 27.5372 85.3455 25.9548 85.5551C24.362 85.7661 22.7518 86.5989 21.0915 88.3504C11.6067 98.2148 5.6701 109.403 4.87473 123.199C4.82049 123.987 5.01751 124.91 5.23568 125.789C5.28951 126.006 5.34483 126.221 5.39954 126.433C5.57507 127.115 5.74424 127.773 5.8376 128.389C5.96164 129.207 5.92565 129.813 5.69084 130.212C5.48311 130.566 5.03866 130.884 3.99141 130.923C3.0404 130.942 2.47668 130.646 2.11429 130.208C1.7293 129.743 1.51247 129.047 1.41994 128.165C1.32816 127.291 1.36459 126.301 1.43031 125.299C1.44827 125.026 1.46858 124.75 1.48876 124.475C1.54105 123.764 1.59246 123.065 1.59979 122.452L1.59981 122.449C1.69696 108.575 7.69972 96.8306 17.318 87.0258C19.0452 85.3043 20.0044 83.9211 19.9281 82.4693C19.8898 81.7409 19.5934 81.0551 19.111 80.3629C18.631 79.6742 17.9469 78.951 17.0924 78.1429L17.0898 78.1405C11.5899 73.0128 9.2344 67.9923 9.74657 63.369C10.2589 58.7443 13.6612 54.3293 20.1152 50.4611C21.1916 49.8256 22.1293 49.2492 22.8707 48.6636C23.6134 48.077 24.1966 47.4529 24.5257 46.706C25.1986 45.1794 24.714 43.3881 23.1836 40.8641C21.2981 37.3047 20.856 34.7297 21.9447 31.9895C23.0632 29.1743 25.8185 26.1134 30.6092 21.6898ZM44.2693 24.4575L42.5112 24.157L43.8569 25.3276C56.4842 36.3116 68.6982 42.8138 81.0928 45.3454L82.8755 45.7095L81.5292 44.4855C70.2881 34.2656 59.1481 27.0005 44.2693 24.4575ZM36.455 49.7681L35.3039 49.9667L36.2422 50.6624C43.2508 55.8593 48.8643 59.6278 55.4275 62.1073C55.6552 62.1933 55.8932 62.3078 56.1632 62.4378C56.2484 62.4787 56.3368 62.5212 56.429 62.5649C56.7968 62.7389 57.2113 62.9228 57.6412 63.0329C58.0748 63.144 58.5505 63.1873 59.0343 63.0562C59.5245 62.9233 59.9757 62.6241 60.3772 62.1308L60.3773 62.1309L60.3856 62.1201C60.8242 61.55 61.0658 60.9768 61.1361 60.4069C61.2064 59.8375 61.1015 59.3046 60.8978 58.8208C60.4984 57.8722 59.7033 57.0783 59.0163 56.4746L59.0095 56.4685L59.0024 56.4628C56.0437 54.0477 52.9314 51.9331 49.2898 50.6443C45.6408 49.353 41.4865 48.8999 36.455 49.7681Z" fill="#E76A64" stroke="#E76A64"/>
</svg>
