<svg width="50" height="68" viewBox="0 0 50 68" fill="none" xmlns="http://www.w3.org/2000/svg">
<path d="M15.1845 11.1029C14.1384 10.0669 13.0037 8.98223 12.0062 7.85782C10.7515 6.36162 8.9564 4.79859 10.1721 2.58799C11.2906 0.554249 13.6464 0.467874 15.5819 0.726138C28.4043 2.59527 38.8352 9.02273 48.1391 17.7095C48.8394 18.325 49.6596 19.3519 48.4958 20.209C47.3319 21.0661 46.7947 19.7342 46.1431 19.0303C39.3346 12.522 31.5535 7.78219 22.6713 4.62493C21.9138 4.32348 21.0676 3.97329 20.3014 3.89742C17.5997 3.56328 14.6926 1.50387 12.3303 4.12039C11.335 5.30054 17.3805 10.4679 20.2681 10.6739C28.2619 11.0393 34.7796 14.5085 40.5506 19.7552C41.9512 20.9862 44.1093 22.5186 42.6191 24.8085C41.3234 26.7448 39.1966 25.5751 37.5442 25.0119C31.7409 22.9721 26.7556 19.6546 21.779 16.1115C19.7094 14.6279 17.5858 12.1932 14.7718 14.7916C13.3648 16.0908 12.3123 17.585 13.0493 19.6027C14.155 22.6292 16.0959 23.927 19.5497 23.5231C24.0929 23.0273 28.1866 24.8179 31.4136 27.9746C32.9428 29.3914 34.0916 31.29 32.8359 33.3634C31.6775 35.26 29.662 34.7274 27.7837 34.1552C23.5755 32.9925 20.234 30.4639 16.9897 27.7584C13.7454 25.0528 11.6662 27.3644 9.56436 29.0877C7.13936 30.9787 5.76912 33.6801 7.78683 36.5173C9.33011 38.748 10.8961 41.5671 14.4731 40.3096C16.9922 39.5067 19.3567 39.1948 21.6921 40.8246C23.1013 41.83 23.7757 43.1222 23.2149 44.7716C22.6454 46.6466 21.0244 46.4461 19.3947 46.4712C16.4985 46.4907 13.9436 42.3217 10.6433 45.8044C5.79009 50.8515 2.76647 56.5594 2.3614 63.5921C2.26093 65.034 4.01281 67.725 1.65692 67.8114C-0.561719 67.8581 0.139578 64.9039 0.160067 63.1877C0.210673 55.96 3.34016 49.8497 8.33063 44.7628C10.118 42.9818 9.96671 42.2076 8.22029 40.5562C2.49793 35.221 3.10838 29.9135 9.82256 25.8898C12.0444 24.578 12.8852 23.8887 11.3105 21.2953C9.32739 17.5558 10.26 15.6502 15.1845 11.1029ZM22.3517 12.9715C28.8316 18.6081 35.0834 21.9311 41.413 23.2239C35.642 17.9772 29.9478 14.2698 22.3517 12.9715ZM18.414 26.008C22.0214 28.6828 24.8885 30.6051 28.2332 31.8687C28.9022 32.1215 29.7797 32.8344 30.4919 31.9592C31.3013 30.9072 30.521 30.0174 29.8207 29.4019C26.7936 26.931 23.5148 25.1278 18.414 26.008Z" fill="#E76A64"/>
</svg>
