<svg width="113" height="118" viewBox="0 0 113 118" fill="none" xmlns="http://www.w3.org/2000/svg">
<path d="M36.1261 31.3672L36.1167 31.3468L36.1054 31.3273C35.5994 30.4507 34.8962 29.7093 34.2141 29.0624C33.958 28.8196 33.7108 28.595 33.4758 28.3815C33.0623 28.0058 32.6865 27.6644 32.3666 27.3183C31.8652 26.7762 31.6401 26.3603 31.6423 25.9937C31.6443 25.6528 31.8494 25.1804 32.6824 24.5382C33.3071 24.0714 33.8649 23.9584 34.3719 24.037C34.8989 24.1188 35.4351 24.4182 35.9749 24.8939C37.063 25.8526 38.01 27.3833 38.7675 28.6491C42.2643 34.6635 42.8986 40.8858 39.3178 46.7616L39.3177 46.7615L39.3137 46.7684C35.8824 52.6049 30.5707 55.9542 23.519 55.4425L23.5163 55.4423C20.3427 55.2294 17.7137 54.2469 15.6181 52.592C13.5207 50.9357 11.929 48.583 10.8698 45.5854L10.8685 45.5817C9.72053 42.411 9.58095 39.4477 10.3726 36.7552C11.1644 34.0621 12.9004 31.5983 15.5735 29.4493C16.8374 28.4574 18.5005 27.1697 20.0878 26.5067C20.8798 26.1759 21.602 26.0233 22.2163 26.1042C22.8039 26.1816 23.3371 26.4773 23.7765 27.15L23.7765 27.1501L23.7818 27.1579C24.427 28.1057 24.459 28.6602 24.3346 28.9949C24.2007 29.3552 23.8141 29.6733 23.1347 29.9744C22.6019 30.2106 21.9809 30.3988 21.3304 30.596C21.1653 30.646 20.9983 30.6966 20.8304 30.7487C20.0367 30.9951 19.201 31.2809 18.6127 31.7127L18.6012 31.7211L18.5902 31.7302C15.9819 33.8832 14.3196 36.2906 13.836 38.8904C13.3503 41.5019 14.07 44.2205 16.052 46.9508L16.0535 46.9529C18.3719 50.1118 21.1841 51.7128 24.1815 51.8732C27.1639 52.0328 30.2358 50.761 33.0835 48.3674C36.053 45.9026 37.4833 43.0578 37.8243 40.1037C38.1636 37.1643 37.4198 34.1619 36.1261 31.3672ZM10.3983 45.752L10.3984 45.7519L10.3983 45.752Z" fill="#FFCD00" stroke="#FFCD00"/>
<path d="M75.4322 36.4013L75.3653 36.4062L75.3021 36.4286C72.1613 37.5384 69.7869 39.2647 68.5304 41.5798C67.2664 43.9086 67.1804 46.746 68.4458 49.9655L68.4458 49.9655L68.4489 49.9732C69.5269 52.5865 71.3452 54.5057 73.587 55.4284C75.8324 56.3525 78.4497 56.2546 81.0729 54.931C84.1686 53.4843 86.4168 51.3921 87.4199 48.7773C88.4272 46.1516 88.1443 43.0903 86.3575 39.7896C86.0902 39.2625 85.7189 38.7542 85.384 38.2957C85.3677 38.2734 85.3515 38.2512 85.3354 38.2291C84.9726 37.7321 84.6646 37.3001 84.4845 36.8933C84.3098 36.4986 84.2877 36.1994 84.4032 35.9322C84.5274 35.6449 84.8582 35.2815 85.6501 34.8812C86.3172 34.544 87.032 34.7475 87.813 35.3819C88.59 36.0129 89.3045 36.9783 89.8596 37.8485C91.588 40.5971 92.2196 43.3035 91.9859 45.9335C91.7517 48.5697 90.6444 51.1676 88.8318 53.6838C86.7944 56.424 84.4132 58.2922 81.7651 59.1839C79.121 60.0743 76.166 60.0067 72.9471 58.7986L72.9471 58.7985L72.9375 58.7951C69.759 57.6755 67.4049 55.8857 65.9158 53.5458C64.4263 51.2054 63.7754 48.2723 64.0783 44.8195L64.0783 44.8195L64.0787 44.8146C64.3352 41.5192 65.492 39.0404 67.2952 37.1544C69.1051 35.2615 71.5958 33.9354 74.5665 33.0063C75.5499 32.7343 76.7911 32.5547 77.8356 32.6263C78.3597 32.6622 78.8039 32.7596 79.1347 32.9173C79.4517 33.0685 79.6392 33.261 79.7272 33.4928C79.915 34.181 79.8766 34.6473 79.7415 34.9709C79.6069 35.293 79.346 35.5469 78.9427 35.7508C78.0972 36.1781 76.8114 36.3002 75.4322 36.4013Z" fill="#FFCD00" stroke="#FFCD00"/>
<path d="M43.0784 109.54C46.976 108.899 50.9769 108.16 54.2776 105.57L54.2776 105.57L54.2829 105.565C56.6653 103.642 58.2293 101.401 58.7502 98.9388C59.2728 96.4683 58.7299 93.846 57.0313 91.2021L57.0303 91.2006C55.3924 88.6716 53.3662 86.9312 50.9829 86.2102C48.5941 85.4874 45.9235 85.8121 43.049 87.265C40.2771 88.666 38.3867 90.5229 37.4658 92.823C36.5453 95.1222 36.6239 97.7886 37.6414 100.75L37.6525 100.783L37.668 100.813C38.2249 101.915 38.8487 103.038 39.479 104.172L39.5199 104.246C40.0712 105.238 40.6272 106.24 41.1547 107.257C39.753 107.657 38.706 107.657 37.9086 107.425C37.0195 107.167 36.3746 106.6 35.8656 105.831C35.3497 105.051 34.9865 104.081 34.666 103.054C34.5594 102.712 34.4561 102.358 34.3529 102.005C34.1558 101.33 33.959 100.656 33.7395 100.067C31.7515 94.3575 33.7559 89.0701 38.8132 85.1498C41.7216 82.9955 44.6918 81.8449 47.6147 81.7652C50.5334 81.6857 53.4537 82.6726 56.272 84.8802L56.2726 84.8807C59.2916 87.2381 61.2073 89.9376 62.0016 92.8924C62.7952 95.8448 62.4835 99.1056 60.9525 102.615C58.0131 109.283 51.9118 111.958 44.8421 112.541C44.4419 112.559 44.2007 112.457 44.032 112.314C43.8474 112.158 43.6978 111.909 43.57 111.552C43.442 111.194 43.3534 110.781 43.2567 110.326L43.253 110.308C43.2002 110.059 43.1447 109.798 43.0784 109.54Z" fill="#FFCD00" stroke="#FFCD00"/>
</svg>
