<svg width="130" height="131" viewBox="0 0 130 131" fill="none" xmlns="http://www.w3.org/2000/svg">
<path d="M43.5406 83.4561C64.597 72.9991 82.372 57.3673 102.368 45.1201C85.3286 64.6089 63.3461 77.8147 41.9512 91.3246C42.4975 94.5871 47.7392 93.5754 47.0896 97.7089C44.1844 100.923 40.9701 98.018 38.1199 97.2878C26.0234 94.7517 25.8344 94.1572 33.1654 84.7908C34.3681 83.4267 35.0845 81.5626 36.483 80.2999C39.1787 77.9704 39.1806 70.7701 44.1783 73.1085C48.3856 75.5345 41.2317 79.2813 43.5406 83.4561Z" fill="#FFCD00"/>
<path d="M36.4936 65.4062C17.8169 67.9071 13.9205 64.4005 18.5303 52.1357C19.5578 49.191 19.8225 44.3616 24.4353 46.0042C27.9675 47.3357 22.3941 50.9074 25.0209 53.5086C38.9922 41.8676 52.9635 30.2267 67.3265 18.7884C69.5222 16.9451 72.5425 12.5487 75.4459 16.5346C77.7686 19.7233 72.9185 20.9379 70.8242 22.5854C58.1501 33.1595 45.8677 43.9363 32.7074 54.0104C26.4245 58.953 27.4706 61.7293 36.4936 65.4062Z" fill="#FFCD00"/>
<path d="M65.3364 111.871C69.7396 114.398 72.3801 116.013 76.8778 118.838C68.3667 120.889 61.9775 119.32 57.2977 115.408C53.2054 111.8 57.705 107.424 59.2393 103.5C59.8544 101.832 62.3542 99.4012 63.1239 100.793C68.3962 111.716 71.9046 100.62 74.5865 99.2761C84.7195 94.0914 93.8871 87.4137 103.635 81.5332C105.425 80.4732 107.918 78.5353 109.262 81.2172C110.707 83.7032 107.93 84.7494 106.039 86.0053C92.8046 94.303 79.4691 102.796 65.3364 111.871Z" fill="#FFCD00"/>
</svg>
