<svg width="445" height="183" viewBox="0 0 445 183" fill="none" xmlns="http://www.w3.org/2000/svg">
<path d="M358.541 83.4561C379.597 72.9991 397.372 57.3673 417.369 45.1201C400.329 64.6089 378.346 77.8147 356.951 91.3246C357.498 94.5871 362.739 93.5754 362.09 97.7089C359.185 100.923 355.97 98.018 353.12 97.2878C341.023 94.7517 340.835 94.1572 348.166 84.7908C349.368 83.4267 350.085 81.5626 351.483 80.2999C354.179 77.9704 354.181 70.7701 359.178 73.1085C363.386 75.5345 356.232 79.2813 358.541 83.4561Z" fill="#FFCD00"/>
<path d="M351.494 65.4062C332.817 67.9071 328.921 64.4005 333.53 52.1357C334.558 49.191 334.823 44.3616 339.435 46.0042C342.968 47.3357 337.394 50.9074 340.021 53.5086C353.992 41.8676 367.964 30.2267 382.327 18.7884C384.522 16.9451 387.543 12.5487 390.446 16.5346C392.769 19.7233 387.919 20.9379 385.824 22.5854C373.15 33.1595 360.868 43.9363 347.708 54.0104C341.425 58.953 342.471 61.7293 351.494 65.4062Z" fill="#FFCD00"/>
<path d="M380.336 111.871C384.74 114.398 387.38 116.013 391.878 118.838C383.367 120.889 376.978 119.32 372.298 115.408C368.206 111.8 372.705 107.424 374.239 103.5C374.854 101.832 377.354 99.4012 378.124 100.793C383.396 111.716 386.905 100.62 389.587 99.2761C399.72 94.0914 408.887 87.4137 418.635 81.5332C420.426 80.4732 422.919 78.5353 424.262 81.2172C425.707 83.7032 422.93 84.7494 421.039 86.0053C407.805 94.303 394.469 102.796 380.336 111.871Z" fill="#FFCD00"/>
<path d="M30.6344 104.21C12.6798 108.883 2.67227 122.318 3.40812 140.573C4.14396 159.558 17.5364 175.914 34.608 178.834C40.6419 179.857 46.2343 178.834 51.2381 174.891C52.2683 174.015 53.5928 172.701 54.7702 174.453C55.506 175.622 54.3286 176.644 53.2984 177.374C46.9702 182.631 39.6117 183.362 31.8117 181.463C13.7099 177.228 0.611919 160.142 0.0232426 139.989C-0.565434 119.982 10.0307 106.546 31.5174 100.121C31.3703 99.5367 31.2231 98.8066 30.9288 98.2224C29.6042 96.1779 25.3363 94.2794 27.691 92.0889C30.4872 89.6063 31.2231 94.7175 33.4306 95.7398C39.6117 98.9526 40.2004 103.042 35.6381 108.153C33.5778 110.489 33.725 114.14 30.4872 116.331C27.8382 111.95 32.1061 109.175 32.5476 105.67C32.8419 105.086 33.725 104.21 33.5778 104.064C32.6948 103.188 31.6646 103.626 30.6344 104.21Z" fill="#E76A64"/>
</svg>
