<svg width="55" height="91" viewBox="0 0 55 91" fill="none" xmlns="http://www.w3.org/2000/svg">
<path d="M30.6344 12.7939C12.6798 17.4671 2.67227 30.9024 3.40812 49.1569C4.14396 68.1416 17.5364 84.4977 34.608 87.4185C40.6419 88.4407 46.2343 87.4184 51.2381 83.4755C52.2683 82.5992 53.5928 81.2849 54.7702 83.0374C55.506 84.2057 54.3286 85.2279 53.2984 85.9581C46.9702 91.2154 39.6117 91.9456 31.8117 90.0471C13.7099 85.812 0.611919 68.7258 0.0232426 48.5728C-0.565434 28.5658 10.0307 15.1304 31.5174 8.70485C31.3703 8.12071 31.2231 7.39054 30.9288 6.8064C29.6042 4.76189 25.3363 2.8634 27.691 0.672856C30.4872 -1.80976 31.2231 3.30151 33.4306 4.32376C39.6117 7.53656 40.2004 11.6256 35.6381 16.7368C33.5778 19.0734 33.725 22.7243 30.4872 24.9149C27.8382 20.5338 32.1061 17.7591 32.5476 14.2543C32.8419 13.6701 33.725 12.7939 33.5778 12.6478C32.6948 11.7716 31.6646 12.2097 30.6344 12.7939Z" fill="#E76A64"/>
</svg>
